<?xml version="1.0" encoding="UTF-8" standalone="no"?>
<svg
   viewBox="0 0 261.76 226.69"
   version="1.1"
   id="svg6"
   sodipodi:docname="logo.svg"
   inkscape:version="1.1.2 (0a00cf5339, 2022-02-04)"
   xmlns:inkscape="http://www.inkscape.org/namespaces/inkscape"
   xmlns:sodipodi="http://sodipodi.sourceforge.net/DTD/sodipodi-0.dtd"
   xmlns="http://www.w3.org/2000/svg"
   xmlns:svg="http://www.w3.org/2000/svg">
  <defs
     id="defs10" />
  <sodipodi:namedview
     id="namedview8"
     pagecolor="#ffffff"
     bordercolor="#666666"
     borderopacity="1.0"
     inkscape:pageshadow="2"
     inkscape:pageopacity="0.0"
     inkscape:pagecheckerboard="0"
     showgrid="false"
     inkscape:zoom="1.925537"
     inkscape:cx="166.1874"
     inkscape:cy="75.303667"
     inkscape:window-width="1920"
     inkscape:window-height="1011"
     inkscape:window-x="0"
     inkscape:window-y="0"
     inkscape:window-maximized="1"
     inkscape:current-layer="svg6" />
  <rect
     style="fill:#f8f9fa;fill-rule:evenodd;stroke:#cdcdcd;stroke-width:15;-inkscape-stroke:none;stop-color:#000000"
     id="rect8299"
     width="138.64615"
     height="101.75773"
     x="20.257282"
     y="71.584061" />
  <rect
     style="fill:#f8f9fa;fill-rule:evenodd;stroke:#cdcdcd;stroke-width:15;-inkscape-stroke:none;stop-color:#000000"
     id="rect8103"
     width="138.64615"
     height="101.75773"
     x="40.257282"
     y="91.584061" />
  <rect
     style="fill:#f8f9fa;fill-rule:evenodd;stroke:#cdcdcd;stroke-width:15;-inkscape-stroke:none;stop-color:#000000;font-variation-settings:normal;opacity:1;vector-effect:none;fill-opacity:1;stroke-linecap:butt;stroke-linejoin:miter;stroke-miterlimit:4;stroke-dasharray:none;stroke-dashoffset:0;stroke-opacity:1;stop-opacity:1"
     id="rect844"
     width="138.64615"
     height="101.75773"
     x="60.257282"
     y="111.58406" />
  <g
     aria-label="?"
     id="text2874"
     style="font-size:110.653px;line-height:1.25;font-family:'CMU Concrete';-inkscape-font-specification:'CMU Concrete';text-align:center;letter-spacing:0px;word-spacing:0px;text-anchor:middle;fill:#e9e9e9;stroke-width:4.4261">
    <path
       d="m 108.83044,140.80752 q 0,-5.6191 4.97074,-10.75193 4.97074,-5.18686 13.83162,-5.18686 6.42955,0 10.85999,1.56686 4.48447,1.56687 6.5376,4.26836 2.05313,2.70149 2.86358,5.18686 0.86448,2.48537 0.86448,5.40298 0,5.51103 -3.0797,9.6173 -0.21612,0.32418 -4.64656,4.21432 -4.43044,3.83612 -7.45611,8.75283 -2.97164,4.91671 -3.0797,11.34625 v 3.89015 q 0,1.4588 -0.43224,1.83701 -0.43224,0.37821 -2.21522,0.37821 h -1.4588 q -1.67493,0 -2.05314,-0.48627 -0.3782,-0.5403 -0.3782,-1.94507 v -1.24269 q 0,-4.75462 0.54029,-8.05044 1.99911,-11.83252 10.96805,-19.61281 0.10806,-0.10806 0.86448,-0.75642 0.81044,-0.64835 1.02656,-0.86447 0.21612,-0.27015 0.86448,-0.97254 0.70239,-0.70239 0.91851,-1.18865 0.21612,-0.5403 0.59432,-1.35075 0.37821,-0.81045 0.48627,-1.72895 0.10806,-0.97254 0.10806,-2.10716 0,-5.29492 -3.0797,-7.51014 -3.07969,-2.21522 -9.29312,-2.21522 -8.42865,0 -11.83252,6.32148 1.56686,1.56686 1.51283,3.56597 0,1.94507 -1.29671,3.18775 -1.24269,1.18866 -2.97164,1.18866 -1.67492,0 -3.13373,-1.0806 -1.40477,-1.13462 -1.40477,-3.67402 z m 12.58894,55.65068 q 0,-2.5394 1.78298,-4.1603 1.78298,-1.67492 4.10626,-1.67492 2.32328,0 3.99821,1.67492 1.72895,1.6209 1.72895,4.1603 0,2.43134 -1.78298,4.10626 -1.72896,1.67492 -3.94418,1.67492 -2.32328,0 -4.10626,-1.67492 -1.78298,-1.67492 -1.78298,-4.10626 z"
       id="path14294" />
  </g>
  <g
     aria-label="?"
     id="text7741"
     style="font-size:110.653px;line-height:1.25;font-family:'CMU Concrete';-inkscape-font-specification:'CMU Concrete';text-align:center;letter-spacing:0px;word-spacing:0px;text-anchor:middle;fill:#1f1f1f;stroke-width:4.4261">
    <path
       d="m 104.83044,138.80752 q 0,-5.6191 4.97074,-10.75193 4.97074,-5.18686 13.83162,-5.18686 6.42955,0 10.85999,1.56686 4.48447,1.56687 6.5376,4.26836 2.05313,2.70149 2.86358,5.18686 0.86448,2.48537 0.86448,5.40298 0,5.51103 -3.0797,9.6173 -0.21612,0.32418 -4.64656,4.21432 -4.43044,3.83612 -7.45611,8.75283 -2.97164,4.91671 -3.0797,11.34625 v 3.89015 q 0,1.4588 -0.43224,1.83701 -0.43224,0.37821 -2.21522,0.37821 h -1.4588 q -1.67493,0 -2.05314,-0.48627 -0.3782,-0.5403 -0.3782,-1.94507 v -1.24269 q 0,-4.75462 0.54029,-8.05044 1.99911,-11.83252 10.96805,-19.61281 0.10806,-0.10806 0.86448,-0.75642 0.81044,-0.64835 1.02656,-0.86447 0.21612,-0.27015 0.86448,-0.97254 0.70239,-0.70239 0.91851,-1.18865 0.21612,-0.5403 0.59432,-1.35075 0.37821,-0.81045 0.48627,-1.72895 0.10806,-0.97254 0.10806,-2.10716 0,-5.29492 -3.0797,-7.51014 -3.07969,-2.21522 -9.29312,-2.21522 -8.42865,0 -11.83252,6.32148 1.56686,1.56686 1.51283,3.56597 0,1.94507 -1.29671,3.18775 -1.24269,1.18866 -2.97164,1.18866 -1.67492,0 -3.13373,-1.0806 -1.40477,-1.13462 -1.40477,-3.67402 z m 12.58894,55.65068 q 0,-2.5394 1.78298,-4.1603 1.78298,-1.67492 4.10626,-1.67492 2.32328,0 3.99821,1.67492 1.72895,1.6209 1.72895,4.1603 0,2.43134 -1.78298,4.10626 -1.72896,1.67492 -3.94418,1.67492 -2.32328,0 -4.10626,-1.67492 -1.78298,-1.67492 -1.78298,-4.10626 z"
       id="path14291" />
  </g>
  <rect
     style="fill:#f8f9fa;fill-rule:evenodd;stroke:#b85900;stroke-width:15;stroke-opacity:1;-inkscape-stroke:none;stop-color:#000000;fill-opacity:1"
     id="rect926"
     width="138.64615"
     height="101.75773"
     x="114.25932"
     y="9.8454943" />
  <g
     aria-label="!"
     id="text12971"
     style="font-size:110.653px;line-height:1.25;font-family:'CMU Concrete';-inkscape-font-specification:'CMU Concrete';text-align:center;letter-spacing:0px;word-spacing:0px;text-anchor:middle;fill:#e9e9e9;stroke-width:4.4261">
    <path
       d="m 180.85117,94.458196 q 0,-2.5394 1.78298,-4.160293 1.78298,-1.674924 4.10626,-1.674924 2.32328,0 3.99821,1.674924 1.72895,1.620893 1.72895,4.160293 0,2.43134 -1.78298,4.106264 -1.72896,1.67492 -3.94418,1.67492 -2.32328,0 -4.10626,-1.67492 -1.78298,-1.674924 -1.78298,-4.106264 z m 0,-66.024397 q 0,-2.971639 1.83701,-4.538502 1.83701,-1.566864 4.05223,-1.566864 2.32328,0 4.05224,1.620894 1.78298,1.620893 1.78298,4.376412 0,0.10806 -0.054,0.432238 -0.054,0.324179 -0.054,0.432239 l -2.43134,46.789794 q -0.10806,2.215221 -0.48627,2.809548 -0.37821,0.540298 -1.62089,0.540298 h -1.78299 q -0.54029,0 -0.86447,0 -0.32418,0 -0.64836,-0.108059 -0.32418,-0.10806 -0.5403,-0.16209 -0.16209,-0.05403 -0.32418,-0.270149 -0.16209,-0.216119 -0.21612,-0.324178 -0.054,-0.16209 -0.10805,-0.486268 -0.054,-0.324179 -0.054,-0.486268 0,-0.16209 -0.054,-0.594328 -0.054,-0.432238 -0.054,-0.810447 l -2.32328,-45.655168 q 0,-0.324179 -0.054,-0.972536 -0.054,-0.702388 -0.054,-1.026566 z"
       id="path14285" />
  </g>
  <g
     aria-label="!"
     id="text12975"
     style="font-size:110.653px;line-height:1.25;font-family:'CMU Concrete';-inkscape-font-specification:'CMU Concrete';text-align:center;letter-spacing:0px;word-spacing:0px;text-anchor:middle;fill:#1f1f1f;stroke-width:4.4261">
    <path
       d="m 176.85117,92.458196 q 0,-2.5394 1.78298,-4.160293 1.78298,-1.674924 4.10626,-1.674924 2.32328,0 3.99821,1.674924 1.72895,1.620893 1.72895,4.160293 0,2.43134 -1.78298,4.106264 -1.72896,1.674923 -3.94418,1.674923 -2.32328,0 -4.10626,-1.674923 -1.78298,-1.674924 -1.78298,-4.106264 z m 0,-66.024397 q 0,-2.971639 1.83701,-4.538502 1.83701,-1.566864 4.05223,-1.566864 2.32328,0 4.05224,1.620894 1.78298,1.620893 1.78298,4.376412 0,0.10806 -0.054,0.432238 -0.054,0.324179 -0.054,0.432239 l -2.43134,46.789794 q -0.10806,2.215221 -0.48627,2.809548 -0.37821,0.540298 -1.62089,0.540298 h -1.78299 q -0.54029,0 -0.86447,0 -0.32418,0 -0.64836,-0.108059 -0.32418,-0.10806 -0.5403,-0.16209 -0.16209,-0.05403 -0.32418,-0.270149 -0.16209,-0.216119 -0.21612,-0.324178 -0.054,-0.16209 -0.10805,-0.486268 -0.054,-0.324179 -0.054,-0.486268 0,-0.16209 -0.054,-0.594328 -0.054,-0.432238 -0.054,-0.810447 l -2.32328,-45.655168 q 0,-0.324179 -0.054,-0.972536 -0.054,-0.702388 -0.054,-1.026566 z"
       id="path14288" />
  </g>
</svg>
